<?xml version="1.0" encoding="UTF-8"?>
<svg width="14px" height="14px" viewBox="0 0 14 14" version="1.1" xmlns="http://www.w3.org/2000/svg" xmlns:xlink="http://www.w3.org/1999/xlink">
    <!-- Generator: Sketch 60.1 (88133) - https://sketch.com -->
    <title>like</title>
    <desc>Created with Sketch.</desc>
    <g id="Page-1" stroke="none" stroke-width="1" fill="none" fill-rule="evenodd">
        <g id="新闻资讯" transform="translate(-591.000000, -2107.000000)">
            <g id="文字列表" transform="translate(130.000000, 450.000000)">
                <g transform="translate(20.000000, 1550.000000)" id="点赞操作">
                    <g transform="translate(423.000000, 103.000000)">
                        <g id="like" transform="translate(17.875000, 3.875000)">
                            <rect id="Rectangle-4" fill-opacity="0" fill="#FFFFFF" x="0" y="0" width="14" height="14"></rect>
                            <path d="M13.228125,6.62050781 L13.2158203,6.57949219 C13.2089844,6.55761719 13.2021484,6.53847656 13.1994141,6.52480469 C13.03125,5.86308594 12.6115234,5.58964844 12.2888672,5.47617187 C12.0701172,5.40234375 11.8417969,5.36542969 11.6121094,5.36542969 L11.6011719,5.36542969 C11.2019531,5.36269531 10.8,5.36269531 10.3994141,5.36269531 C10.1054687,5.36269531 9.81152344,5.3640625 9.52304687,5.3640625 L9.22773437,5.3640625 C9.25917969,5.17265625 9.28925781,4.98945313 9.32480469,4.80625 C9.44511719,4.19238281 9.42324219,3.65644531 9.25507812,3.16835937 C9.15117187,2.86484375 9.03496094,2.56269531 8.92421875,2.27148438 C8.88320312,2.16347656 8.8421875,2.05546875 8.80117187,1.94882812 C8.66308594,1.5796875 8.415625,1.31855469 8.06699219,1.17226562 C7.80039062,1.05605469 7.5296875,1 7.26308594,1 C6.95410156,1 6.65195312,1.07519531 6.36347656,1.22558594 C5.9109375,1.46210938 5.66757812,1.86542969 5.68125,2.36171875 C5.68535156,2.52578125 5.68945312,2.69394531 5.6921875,2.85664062 C5.69765625,3.1328125 5.703125,3.41855469 5.71542969,3.70019531 C5.71953125,3.74667969 5.70996094,3.79453125 5.68535156,3.83554687 C5.58554687,4.00917969 5.48300781,4.18417969 5.38457031,4.35644531 C5.15078125,4.76386719 4.90878906,5.18632812 4.65859375,5.58691406 C4.29628906,6.1625 3.53203125,6.25 3.53203125,6.25 L1.984375,6.25 C1.44023437,6.25 1,6.69023437 1,7.234375 L1,12.265625 C1,12.8097656 1.44023437,13.25 1.984375,13.25 L5.36542969,13.25 L5.3640625,13.25 L5.37910156,13.25 C6.10097656,13.25 6.83105469,13.2472656 7.55566406,13.2472656 C8.01777344,13.2472656 8.47851562,13.25 8.93242187,13.25 L10.2162109,13.25 C10.5060547,13.25 10.8492187,13.2308594 11.2005859,13.1160156 C11.9333984,12.8767578 12.4064453,12.2792969 12.4638672,11.5191406 C12.4830078,11.3099609 12.4707031,11.0980469 12.4283203,10.8916016 C12.659375,10.5306641 12.7632812,10.1492188 12.7386719,9.75546875 C12.7304687,9.64335938 12.7099609,9.53125 12.6785156,9.42324219 C12.8986328,9.09511719 13.0039062,8.74375 12.9943359,8.37597656 C12.9875,8.23925781 12.9642578,8.10390625 12.9273437,7.97128906 C13.053125,7.78535156 13.1447266,7.58027344 13.1966797,7.36152344 L13.25,7.29179688 L13.25,6.69023438 L13.228125,6.62050781 Z M3.515625,12.265625 L1.984375,12.265625 L1.984375,7.234375 L3.515625,7.234375 L3.515625,12.265625 Z M12.265625,7.0265625 L12.2396484,7.13320312 C12.2150391,7.23710937 12.1712891,7.33417969 12.1125,7.42167969 L11.8541016,7.803125 L11.98125,8.24609375 C11.9976563,8.30214844 12.0072266,8.3609375 12.0113281,8.41972656 C12.0140625,8.57695312 11.9662109,8.72324219 11.8623047,8.87773437 L11.6052734,9.26054687 L11.7351563,9.70214844 C11.7474609,9.74179687 11.7542969,9.7828125 11.7570313,9.82382812 C11.7666016,10.0042969 11.7160156,10.1806641 11.5984375,10.3625 L11.3824219,10.7042969 L11.4548828,11.0488281 L11.3359375,11.0488281 L11.4548828,11.0488281 L11.4658203,11.0953125 C11.4890625,11.2046875 11.4958984,11.3167969 11.4849609,11.4275391 L11.4835938,11.4357422 L11.4835938,11.4439453 C11.4699219,11.6216797 11.4138672,11.7748047 11.3154297,11.8992187 C11.215625,12.025 11.0748047,12.1220703 10.8970703,12.1794922 C10.6769531,12.2519531 10.4404297,12.2642578 10.2175781,12.2642578 L8.93378906,12.2642578 C8.70820312,12.2642578 8.48125,12.2615234 8.2515625,12.2615234 C8.02050781,12.2615234 7.78945312,12.2601562 7.55703125,12.2601562 C6.90625,12.2601562 6.13925781,12.2642578 5.37773438,12.2642578 L4.50410156,12.2642578 L4.51503906,6.96367187 C4.93066406,6.76132812 5.265625,6.47011719 5.49257813,6.11054687 L5.49394531,6.1078125 L5.4953125,6.10507812 C5.75097656,5.69492187 5.99433594,5.27109375 6.22949219,4.8609375 L6.2390625,4.84589844 L6.24042969,4.84453125 L6.24179688,4.84316406 C6.30332031,4.73515625 6.36894531,4.62167969 6.43183594,4.51230469 C6.46738281,4.45078125 6.50292969,4.390625 6.53710938,4.33046875 C6.66015625,4.12128906 6.71621094,3.88339844 6.69980469,3.64277344 C6.68886719,3.384375 6.68339844,3.11777344 6.67929688,2.86074219 L6.67929688,2.8375 C6.67519531,2.65019531 6.67246094,2.49160156 6.66835938,2.334375 C6.665625,2.25097656 6.6875,2.21542969 6.69433594,2.203125 C6.72167969,2.15664062 6.77910156,2.11972656 6.82285156,2.09785156 C6.96914062,2.02128906 7.1140625,1.984375 7.26582031,1.984375 C7.40117188,1.984375 7.54472656,2.01582031 7.69101563,2.07597656 C7.77304688,2.11015625 7.83457031,2.15800781 7.88378906,2.290625 C7.92480469,2.39863281 7.9671875,2.509375 8.00820313,2.61875 C8.13125,2.94003906 8.23242188,3.20800781 8.328125,3.48417969 C8.4375,3.80410156 8.44980469,4.17324219 8.36230469,4.61210937 C8.32539063,4.80078125 8.29394531,4.98398437 8.25839844,5.20136719 L8.06972656,6.34570312 L9.52167969,6.34570312 C9.66523438,6.34570312 9.81015625,6.34570312 9.95644531,6.34433594 L10.3980469,6.34433594 C10.7507812,6.34433594 11.1677734,6.34433594 11.5916016,6.3484375 L11.5984375,6.34707031 L11.6052734,6.34570312 L11.6107422,6.34570312 C11.7310547,6.34570312 11.85,6.36621094 11.9648437,6.403125 C12.0728516,6.44277344 12.1808594,6.51660156 12.24375,6.7640625 C12.2505859,6.79277344 12.265625,6.81875 12.265625,6.840625 L12.265625,7.0265625 L12.265625,7.0265625 Z" id="Shape" fill-opacity="0.45" fill="#000000" fill-rule="nonzero"></path>
                        </g>
                    </g>
                </g>
            </g>
        </g>
    </g>
</svg>