<?xml version="1.0" encoding="UTF-8"?>
<svg width="13px" height="13px" viewBox="0 0 13 13" version="1.1" xmlns="http://www.w3.org/2000/svg" xmlns:xlink="http://www.w3.org/1999/xlink">
    <!-- Generator: Sketch 60.1 (88133) - https://sketch.com -->
    <title>like2</title>
    <desc>Created with Sketch.</desc>
    <g id="Page-1" stroke="none" stroke-width="1" fill="none" fill-rule="evenodd">
        <g id="新闻资讯-详情" transform="translate(-740.000000, -2105.000000)">
            <g id="文字列表" transform="translate(130.000000, 89.000000)">
                <g id="点赞操作" transform="translate(609.000000, 2011.000000)">
                    <g id="like2" transform="translate(0.000000, 4.000000)">
                        <rect id="Rectangle-4" fill-opacity="0" fill="#FFFFFF" x="0.125" y="0.125" width="14" height="14"></rect>
                        <path d="M13.228125,6.62050781 L13.2158203,6.57949219 C13.2089844,6.55761719 13.2021484,6.53847656 13.1994141,6.52480469 C13.03125,5.86308594 12.6115234,5.58964844 12.2888672,5.47617187 C12.0701172,5.40234375 11.8417969,5.36542969 11.6121094,5.36542969 L11.6011719,5.36542969 C11.2019531,5.36269531 10.8,5.36269531 10.3994141,5.36269531 C10.1054687,5.36269531 9.81152344,5.3640625 9.52304687,5.3640625 L9.22773437,5.3640625 C9.25917969,5.17265625 9.28925781,4.98945313 9.32480469,4.80625 C9.44511719,4.19238281 9.42324219,3.65644531 9.25507812,3.16835937 C9.15117187,2.86484375 9.03496094,2.56269531 8.92421875,2.27148438 C8.88320312,2.16347656 8.8421875,2.05546875 8.80117187,1.94882812 C8.66308594,1.5796875 8.415625,1.31855469 8.06699219,1.17226562 C7.80039062,1.05605469 7.5296875,1 7.26308594,1 C6.95410156,1 6.65195312,1.07519531 6.36347656,1.22558594 C5.9109375,1.46210938 5.66757812,1.86542969 5.68125,2.36171875 C5.68535156,2.52578125 5.68945312,2.69394531 5.6921875,2.85664062 C5.69765625,3.1328125 5.703125,3.41855469 5.71542969,3.70019531 C5.71953125,3.74667969 5.70996094,3.79453125 5.68535156,3.83554687 C5.58554687,4.00917969 5.48300781,4.18417969 5.38457031,4.35644531 C5.15078125,4.76386719 4.90878906,5.18632812 4.65859375,5.58691406 C4.29628906,6.1625 3.53203125,6.25 3.53203125,6.25 L1.984375,6.25 C1.44023437,6.25 1,6.69023437 1,7.234375 L1,12.265625 C1,12.8097656 1.44023437,13.25 1.984375,13.25 L5.36542969,13.25 L5.3640625,13.25 L5.37910156,13.25 C6.10097656,13.25 6.83105469,13.2472656 7.55566406,13.2472656 C8.01777344,13.2472656 8.47851562,13.25 8.93242187,13.25 L10.2162109,13.25 C10.5060547,13.25 10.8492187,13.2308594 11.2005859,13.1160156 C11.9333984,12.8767578 12.4064453,12.2792969 12.4638672,11.5191406 C12.4830078,11.3099609 12.4707031,11.0980469 12.4283203,10.8916016 C12.659375,10.5306641 12.7632812,10.1492188 12.7386719,9.75546875 C12.7304687,9.64335938 12.7099609,9.53125 12.6785156,9.42324219 C12.8986328,9.09511719 13.0039062,8.74375 12.9943359,8.37597656 C12.9875,8.23925781 12.9642578,8.10390625 12.9273437,7.97128906 C13.053125,7.78535156 13.1447266,7.58027344 13.1966797,7.36152344 L13.25,7.29179688 L13.25,6.69023438 L13.228125,6.62050781 Z M3.515625,12.265625 L1.984375,12.265625 L1.984375,7.234375 L3.515625,7.234375 L3.515625,12.265625 Z" id="Shape" fill-opacity="0.45" fill="#000000" fill-rule="nonzero"></path>
                    </g>
                </g>
            </g>
        </g>
    </g>
</svg>