<?xml version="1.0" encoding="UTF-8"?>
<svg width="11px" height="11px" viewBox="0 0 11 11" version="1.1" xmlns="http://www.w3.org/2000/svg" xmlns:xlink="http://www.w3.org/1999/xlink">
    <!-- Generator: Sketch 60.1 (88133) - https://sketch.com -->
    <title>分享</title>
    <desc>Created with Sketch.</desc>
    <g id="Page-1" stroke="none" stroke-width="1" fill="none" fill-rule="evenodd">
        <g id="新闻资讯" transform="translate(-650.000000, -2109.000000)">
            <g id="文字列表" transform="translate(130.000000, 450.000000)">
                <g transform="translate(20.000000, 1550.000000)" id="点赞操作">
                    <g transform="translate(423.000000, 103.000000)">
                        <g id="分享" transform="translate(83.000000, 11.210938) scale(1, -1) translate(-83.000000, -11.210938) translate(76.000000, 4.210938)">
                            <rect id="Rectangle-4" fill-opacity="0" fill="#FFFFFF" x="0" y="0" width="14" height="14"></rect>
                            <path d="M10.3219412,8.7585208 C9.74290106,8.75853271 9.2056083,9.07157077 8.90373539,9.58479731 L4.25024769,7.15372612 C4.34712867,6.8240483 4.34712867,6.47184817 4.25024769,6.14217035 L8.86828025,3.74389705 C9.27164293,4.53677408 10.1923487,4.87680699 10.9870977,4.52641378 C11.7818467,4.17602058 12.1859236,3.25191034 11.9169988,2.39976163 C11.648074,1.54761291 10.795721,1.0512597 9.95548129,1.25750544 C9.1152416,1.46375119 8.5669826,2.30389949 8.69377446,3.19093624 L4.00261567,5.62718604 C3.57781301,5.02494802 2.82840512,4.77460393 2.1452421,5.00671951 C1.46207907,5.2388351 1,5.9008013 1,6.64737284 C1,7.39394437 1.46207907,8.05591057 2.1452421,8.28802616 C2.82840512,8.52014175 3.57781301,8.26979765 4.00261567,7.66755963 L8.69986831,10.1210715 C8.55147114,10.8362987 8.85330284,11.571004 9.45312798,11.9546227 C10.0529531,12.3382414 10.8204621,12.2874338 11.3685449,11.8278259 C11.9166277,11.368218 12.1262156,10.5996577 11.8915983,9.90978526 C11.656981,9.21991287 11.0291281,8.75860034 10.3247111,8.7585208 L10.3219412,8.7585208 Z" id="路径" fill="#999999"></path>
                        </g>
                    </g>
                </g>
            </g>
        </g>
    </g>
</svg>